<?xml version="1.0" encoding="iso-8859-1"?>
<!-- Generator: Adobe Illustrator 19.0.0, SVG Export Plug-In . SVG Version: 6.00 Build 0)  -->
<svg version="1.1" id="Capa_1" xmlns="http://www.w3.org/2000/svg" xmlns:xlink="http://www.w3.org/1999/xlink" x="0px" y="0px"
	 viewBox="0 0 512 512" style="enable-background:new 0 0 512 512;" xml:space="preserve">
<g>
	<g>
		<path d="M256,0C115.041,0,0,115.049,0,256c0,140.958,115.049,256,256,256c140.959,0,256-115.049,256-256
			C512,115.04,396.951,0,256,0z M481.006,234.896l-106.941-35.45l29.299-71.232c2.303-5.598,1.015-12.032-3.266-16.313
			c-4.279-4.28-10.712-5.568-16.313-3.266l-71.232,29.299l-35.45-106.941C384.911,41.025,470.975,127.089,481.006,234.896z
			 M320.063,298.85l-23.461-23.461C299.419,269.514,301,262.939,301,256c0-6.939-1.581-13.514-4.398-19.389l23.461-23.461
			c54.577,18.092,0.396,0.245,129.265,42.85C437.129,260.044,336.162,293.514,320.063,298.85z M361.94,361.94l-39.923-16.421
			l5.851-17.651l17.651-5.851L361.94,361.94z M322.017,166.481l39.923-16.421l-16.421,39.923l-17.651-5.851L322.017,166.481z
			 M298.851,191.937l-23.461,23.461C269.514,212.581,262.939,211,256,211c-6.939,0-13.514,1.581-19.389,4.398l-23.461-23.461
			C218.675,175.27,251.862,75.154,256,62.672C260.042,74.864,293.522,175.863,298.851,191.937z M271,256c0,8.271-6.729,15-15,15
			s-15-6.729-15-15s6.729-15,15-15S271,247.729,271,256z M215.398,275.389l-23.461,23.461c-61.379-20.347-1.759-0.695-129.265-42.85
			c12.386-4.106,112.673-37.35,129.265-42.85l23.461,23.461C212.581,242.486,211,249.061,211,256
			C211,262.939,212.581,269.514,215.398,275.389z M189.983,345.519L150.06,361.94l16.421-39.923l17.651,5.851L189.983,345.519z
			 M150.06,150.06l39.923,16.421l-5.851,17.651l-17.651,5.851L150.06,150.06z M234.896,30.994l-35.45,106.941l-71.232-29.299
			c-5.598-2.303-12.032-1.015-16.313,3.266s-5.569,10.714-3.266,16.313l29.299,71.232l-106.941,35.45
			C41.025,127.089,127.089,41.025,234.896,30.994z M30.994,277.104l106.941,35.45l-29.299,71.232
			c-2.302,5.599-1.015,12.032,3.266,16.313c4.28,4.281,10.713,5.568,16.313,3.266l71.232-29.299l35.45,106.941
			C127.089,470.975,41.025,384.911,30.994,277.104z M255.999,449.328c-4.113-12.411-37.288-112.488-42.849-129.265l23.461-23.461
			C242.486,299.419,249.061,301,256,301c6.939,0,13.514-1.581,19.389-4.398l23.461,23.461
			C293.375,336.58,260.11,436.927,255.999,449.328z M277.104,481.006l35.45-106.941l71.232,29.299
			c5.611,2.307,12.04,1.006,16.313-3.266c4.28-4.28,5.568-10.714,3.266-16.313l-29.299-71.232l106.941-35.45
			C470.975,384.911,384.911,470.975,277.104,481.006z"/>
	</g>
</g>
<g>
</g>
<g>
</g>
<g>
</g>
<g>
</g>
<g>
</g>
<g>
</g>
<g>
</g>
<g>
</g>
<g>
</g>
<g>
</g>
<g>
</g>
<g>
</g>
<g>
</g>
<g>
</g>
<g>
</g>
</svg>
